<svg
    width="16"
    height="16"
    viewBox="0 0 16 16"
    fill="none"
    xmlns="http://www.w3.org/2000/svg"
>
    <path
    d="M15.8876 5.92613C15.6075 5.00544 14.7768 4.38271 13.8425 4.39304H10.9293L10.0444 1.54477C9.68188 0.375821 8.47043 -0.26789 7.33869 0.106586C6.67702 0.325783 6.1585 0.861348 5.94659 1.54444L5.06176 4.39272H2.14847C0.960157 4.39498 -0.00156085 5.39121 1.90186e-06 6.61859C0.000939553 7.32654 0.328492 7.99156 0.881707 8.40962L3.25271 10.2003L2.35132 13.0838C2.05221 14.0022 2.3732 15.0146 3.14082 15.5721C3.89501 16.1474 4.9258 16.1422 5.67467 15.5589L7.99567 13.7943L10.3173 15.5566C11.2746 16.2839 12.6214 16.0718 13.3256 15.0834C13.7357 14.5078 13.8526 13.7637 13.64 13.0838L12.7386 10.2003L15.1124 8.40962C15.8726 7.84887 16.1876 6.84005 15.8876 5.92613ZM14.3251 7.29749L11.5619 9.38358C11.329 9.55887 11.2318 9.8691 11.3206 10.1522L12.3707 13.506C12.5095 13.9502 12.2732 14.4264 11.8435 14.5697C11.5931 14.653 11.3193 14.6072 11.1074 14.4461L8.39042 12.38C8.15569 12.2018 7.83595 12.2018 7.60092 12.38L4.88391 14.4461C4.52167 14.7253 4.00909 14.6482 3.73904 14.2744C3.57995 14.0539 3.53432 13.7675 3.61715 13.506L4.67076 10.1522C4.75952 9.8691 4.66232 9.55919 4.42947 9.38358L1.6659 7.29749C1.30146 7.0218 1.22207 6.49301 1.48899 6.1166C1.64308 5.89934 1.88781 5.77085 2.14847 5.77085H5.54902C5.83876 5.77085 6.09505 5.57781 6.18381 5.29275L7.21742 1.96573C7.35588 1.52152 7.81689 1.27715 8.24696 1.42016C8.49794 1.50345 8.69453 1.7065 8.77517 1.96573L9.80877 5.29275C9.89754 5.57748 10.1538 5.77085 10.4436 5.77085H13.8441C14.2961 5.77118 14.6621 6.14985 14.6617 6.61633C14.6614 6.88556 14.5373 7.13866 14.327 7.29749H14.3251Z"
    fill="#00EF78"
    />
</svg>