<svg
    width="16"
    height="16"
    viewBox="0 0 16 16"
    fill="none"
    xmlns="http://www.w3.org/2000/svg"
>
    <path
    d="M13.2523 15.9973C12.7555 15.9973 12.2775 15.7942 11.9275 15.4412L7.82821 11.3669L3.7289 15.4443C3.19149 15.9911 2.37287 16.1504 1.66674 15.8505C0.95436 15.563 0.488812 14.8694 0.498186 14.1008V3.33382C0.495061 1.4935 1.98856 0 3.82888 0H11.8275C13.6679 0 15.1614 1.4935 15.1614 3.33382V14.1008C15.1676 14.8694 14.7052 15.563 13.9928 15.8505C13.7585 15.9473 13.5054 15.9973 13.2523 15.9973ZM3.82888 1.33415C2.72594 1.33415 1.82921 2.23088 1.82921 3.33382V14.1008C1.82921 14.4101 2.07917 14.6632 2.3885 14.6632C2.53847 14.6632 2.67907 14.6038 2.7853 14.5007L7.35954 9.95459C7.61887 9.69526 8.04068 9.69526 8.30001 9.95459L12.8711 14.4976C13.0898 14.7163 13.446 14.7163 13.6647 14.4945C13.771 14.3882 13.8272 14.2476 13.8272 14.0977V3.33382C13.8272 2.23088 12.9305 1.33415 11.8275 1.33415H3.82888Z"
    fill="#C5D6DF"
    />
</svg>