<svg width="26" height="28" viewBox="0 0 26 28" fill="none" xmlns="http://www.w3.org/2000/svg">
<path d="M22.3193 27.9945C21.45 27.9945 20.6134 27.6391 20.001 27.0213L12.8274 19.8914L5.65383 27.0268C4.71339 27.9836 3.28085 28.2625 2.04516 27.7376C0.798525 27.2345 -0.0161599 26.0207 0.000243193 24.6757V5.83402C-0.00522449 2.61355 2.60833 0 5.82879 0H19.8261C23.0465 0 25.6601 2.61355 25.6601 5.83402V24.6757C25.671 26.0207 24.8618 27.2345 23.6152 27.7376C23.2051 27.9071 22.7622 27.9945 22.3193 27.9945ZM5.82879 2.3347C3.8987 2.3347 2.32948 3.90393 2.32948 5.83402V24.6757C2.32948 25.217 2.76689 25.6598 3.30819 25.6598C3.57064 25.6598 3.81669 25.556 4.00259 25.3755L12.0073 17.42C12.4611 16.9662 13.1992 16.9662 13.653 17.42L21.6523 25.37C22.035 25.7528 22.6583 25.7528 23.0411 25.3646C23.227 25.1787 23.3254 24.9326 23.3254 24.6702V5.83402C23.3254 3.90393 21.7562 2.3347 19.8261 2.3347H5.82879Z" fill="#8D8D8D"/>
</svg>
