<svg 
    width="18" 
    height="21" 
    viewBox="0 0 18 21" 
    fill="none" 
    xmlns="http://www.w3.org/2000/svg">
<path 
    d="M8.99877 6.66942C7.15853 6.66942 5.66602 8.16193 5.66602 10.0022C5.66602 11.8424 7.15853 13.3349 8.99877 13.3349C10.839 13.3349 12.3315 11.8424 12.3315 10.0022C12.3315 8.16193 10.8429 6.66942 8.99877 6.66942ZM8.99877 11.6705C8.0767 11.6705 7.33044 10.9242 7.33044 10.0022C7.33044 9.0801 8.0767 8.33384 8.99877 8.33384C9.92085 8.33384 10.6671 9.0801 10.6671 10.0022C10.6671 10.9242 9.92085 11.6705 8.99877 11.6705Z" 
    fill="#C5D6DF"/>
<path 
    d="M16.7459 11.5845L16.3747 11.3697C16.5427 10.4632 16.5427 9.53332 16.3747 8.62687L16.7459 8.41198C17.9414 7.72043 18.3517 6.19275 17.664 4.99327C16.9725 3.7977 15.4448 3.38745 14.2453 4.0751L13.8741 4.28999C13.1748 3.69221 12.3699 3.22726 11.4986 2.92251V2.50054C11.4986 1.12134 10.3773 0 8.99809 0C7.61889 0 6.49755 1.12134 6.49755 2.50054V2.92642C5.63017 3.23508 4.82531 3.70002 4.12203 4.29781L3.75086 4.08292C2.55529 3.39527 1.02761 3.80551 0.336056 5.00109C-0.3555 6.19666 0.0547453 7.72824 1.25032 8.4198L1.62149 8.63469C1.45349 9.54113 1.45349 10.471 1.62149 11.3775L1.25032 11.5924C0.0547453 12.2761 -0.3555 13.8077 0.336056 15.0033C1.02761 16.1988 2.55529 16.6091 3.75477 15.9214L4.12594 15.7065C4.82531 16.3043 5.63017 16.7693 6.50146 17.074V17.5038C6.50146 18.883 7.62279 20.0043 9.002 20.0043C10.3812 20.0043 11.5025 18.883 11.5025 17.5038V17.0779C12.3699 16.7693 13.1748 16.3043 13.8781 15.7065L14.2492 15.9214C15.4448 16.613 16.9764 16.2027 17.6679 15.0033C18.3556 13.8038 17.9453 12.2761 16.7459 11.5845ZM14.6243 8.43933C14.9056 9.46299 14.9056 10.5414 14.6243 11.565C14.5227 11.9323 14.6829 12.3191 15.0111 12.5105L15.9137 13.0341C16.3122 13.2646 16.4489 13.7725 16.2184 14.175C15.9879 14.5735 15.48 14.7102 15.0775 14.4797L14.1711 13.9562C13.8429 13.7647 13.4248 13.8233 13.1592 14.0929C12.4168 14.8509 11.483 15.3901 10.4554 15.6557C10.0882 15.7495 9.8303 16.0816 9.8303 16.4645V17.5038C9.8303 17.9648 9.45522 18.336 8.99809 18.336C8.53705 18.336 8.16588 17.9609 8.16588 17.5038V16.4606C8.16588 16.0816 7.90801 15.7495 7.54074 15.6518C6.51318 15.3862 5.57938 14.8431 4.83703 14.0851C4.57135 13.8116 4.15329 13.7569 3.82509 13.9483L2.92255 14.4719C2.52403 14.7063 2.01611 14.5696 1.78168 14.175C1.54726 13.7764 1.684 13.2685 2.07862 13.0341C2.08253 13.0341 2.08644 13.0302 2.08644 13.0302L2.98898 12.5066C3.31717 12.3152 3.47736 11.9284 3.37578 11.5611C3.09447 10.5374 3.09447 9.45908 3.37578 8.43542C3.47346 8.07206 3.31717 7.68526 2.98898 7.49381L2.08644 6.97026C1.68791 6.73974 1.55116 6.23182 1.78168 5.82939C2.0122 5.42696 2.52012 5.29412 2.92255 5.52464L3.829 6.04819C4.1572 6.23964 4.57526 6.18494 4.84094 5.91535C5.58329 5.15737 6.51708 4.61819 7.54465 4.35251C7.91583 4.25874 8.17369 3.92273 8.16979 3.53983V2.50054C8.16979 2.03951 8.54487 1.66833 9.002 1.66833C9.45913 1.66833 9.83421 2.04341 9.83421 2.50054V3.54374C9.83421 3.92273 10.0921 4.25483 10.4593 4.35251C11.4869 4.61819 12.4207 5.16128 13.1631 5.91925C13.4287 6.19275 13.8468 6.24745 14.175 6.056L15.0775 5.53245C15.4761 5.29802 15.984 5.43477 16.2184 5.82939C16.4528 6.22791 16.3161 6.73584 15.9215 6.97026C15.9176 6.97026 15.9137 6.97417 15.9137 6.97417L15.0111 7.49772C14.6829 7.68917 14.5227 8.07597 14.6243 8.43933Z" 
    fill="#C5D6DF"/>
</svg>