<svg width="28" height="22" viewBox="0 0 28 22" fill="none" xmlns="http://www.w3.org/2000/svg">
<path d="M8.16605 3.50068H26.8345C27.4799 3.50068 27.9996 2.97558 27.9996 2.33561C27.9996 1.69564 27.4745 1.17054 26.8345 1.17054H8.16605C7.52061 1.17054 7.00098 1.69564 7.00098 2.33561C7.00098 2.97558 7.52608 3.50068 8.16605 3.50068Z" fill="#C5D6DF"/>
<path d="M26.84 9.33696H8.16605C7.52061 9.33696 7.00098 9.86206 7.00098 10.502C7.00098 11.1475 7.52608 11.6671 8.16605 11.6671H26.8345C27.4799 11.6671 27.9996 11.142 27.9996 10.502C28.005 9.85659 27.4799 9.33696 26.84 9.33696Z" fill="#C5D6DF"/>
<path d="M26.84 17.5034H8.16605C7.52061 17.5034 7.00098 18.0285 7.00098 18.6685C7.00098 19.3084 7.52608 19.8335 8.16605 19.8335H26.8345C27.4799 19.8335 27.9996 19.3084 27.9996 18.6685C27.9996 18.0285 27.4799 17.5034 26.84 17.5034Z" fill="#C5D6DF"/>
<path d="M2.33561 4.67122C3.62553 4.67122 4.67122 3.62553 4.67122 2.33561C4.67122 1.04569 3.62553 0 2.33561 0C1.04569 0 0 1.04569 0 2.33561C0 3.62553 1.04569 4.67122 2.33561 4.67122Z" fill="#C5D6DF"/>
<path d="M2.33561 12.8376C3.62553 12.8376 4.67122 11.792 4.67122 10.502C4.67122 9.21211 3.62553 8.16642 2.33561 8.16642C1.04569 8.16642 0 9.21211 0 10.502C0 11.792 1.04569 12.8376 2.33561 12.8376Z" fill="#C5D6DF"/>
<path d="M2.33561 21.0041C3.62553 21.0041 4.67122 19.9584 4.67122 18.6685C4.67122 17.3785 3.62553 16.3328 2.33561 16.3328C1.04569 16.3328 0 17.3785 0 18.6685C0 19.9584 1.04569 21.0041 2.33561 21.0041Z" fill="#C5D6DF"/>
</svg>
