<svg width="26" height="26" viewBox="0 0 26 26" fill="none" xmlns="http://www.w3.org/2000/svg">
<path d="M13.0026 12.9974C15.3939 12.9974 17.3333 11.058 17.3333 8.66665C17.3333 6.27533 15.3939 4.33079 13.0026 4.33079C10.6112 4.33079 8.67177 6.27025 8.67177 8.66158C8.67177 11.0529 10.6112 12.9974 13.0026 12.9974ZM13.0026 6.49872C14.2008 6.49872 15.1705 7.46845 15.1705 8.66665C15.1705 9.86486 14.2008 10.8346 13.0026 10.8346C11.8044 10.8346 10.8346 9.86486 10.8346 8.66665C10.8346 7.46845 11.8044 6.49872 13.0026 6.49872ZM22.38 9.91563L21.6032 9.65669C22.1515 4.9045 18.7448 0.604178 13.9875 0.0558484C13.6626 0.0203085 13.3326 0 13.0026 0C8.2199 0 4.34605 3.87893 4.34605 8.66158C4.34605 9.05759 4.37144 9.45361 4.42729 9.84962C3.39155 10.0426 2.43198 10.53 1.66533 11.256C0.594056 12.2714 -0.00504512 13.6879 3.20085e-05 15.1654V19.5774C0.00510914 21.984 1.58917 24.096 3.89927 24.7764L7.00647 25.7512C7.52941 25.9137 8.07266 25.9949 8.62099 25.9949C9.11855 25.9949 9.61103 25.9289 10.0883 25.7918L16.3535 23.9437C16.9119 23.7914 17.5009 23.7914 18.0594 23.9437L20.6436 24.8119C22.969 25.3755 25.3095 23.9539 25.8781 21.6286C25.9594 21.2935 26 20.9533 26 20.6081V15.0232C25.9949 12.7284 24.5479 10.6823 22.38 9.91563ZM8.40775 4.07693C10.9362 1.53837 15.0385 1.53329 17.577 4.05662C17.5821 4.0617 17.5872 4.06678 17.5974 4.07693C20.1258 6.62057 20.1308 10.733 17.6075 13.2818L13.759 17.0236C13.3427 17.4349 12.6725 17.4349 12.2562 17.0236L8.40775 13.297C5.87427 10.7483 5.87427 6.62565 8.40775 4.07693ZM23.8321 20.603C23.8321 21.2681 23.5274 21.8976 23.0045 22.3038C22.512 22.6998 21.8672 22.8572 21.2427 22.7303L18.7042 21.8773C17.7446 21.6032 16.7241 21.593 15.7594 21.8621L9.49934 23.7102C8.89516 23.8777 8.26052 23.8676 7.66649 23.6797L4.53391 22.7049C3.14277 22.3038 2.17812 21.0295 2.17812 19.5774V15.1654C2.17304 14.282 2.53352 13.4341 3.17324 12.8248C3.67079 12.3526 4.30036 12.048 4.98069 11.9516C5.41733 13.033 6.0672 14.0179 6.89477 14.8404L10.7585 18.5823C12.0125 19.8109 14.0231 19.8109 15.2771 18.5823L19.1357 14.8303C19.9988 13.9621 20.669 12.9213 21.1006 11.7739L21.6844 11.9668C22.9791 12.4288 23.8422 13.6524 23.8422 15.0283V20.603H23.8321Z" fill="#C5D6DF"/>
</svg>
