<svg 
    width="21"
    height="21"
    viewBox="0 0 21 21"
    fill="none"
    className="hover#D0D2D3"
    xmlns="http://www.w3.org/2000/svg"
>
    <path
    d="M3.50273 6.06074C2.80547 6.06074 2.13691 5.78594 1.64472 5.28965L0.291208 4.08789C-0.0697294 3.76797 -0.102542 3.21426 0.221482 2.85332C0.545505 2.49238 1.09511 2.45957 1.45605 2.78359L2.84238 4.02226C3.1623 4.3832 3.71601 4.41601 4.07695 4.09199C4.08925 4.07969 4.10156 4.06738 4.11386 4.05508L7.26797 1.05273C7.6289 0.732811 8.18261 0.761522 8.50254 1.12246C8.81015 1.46699 8.79785 1.98789 8.47383 2.31601L5.33203 5.30195C4.84804 5.79414 4.18769 6.06484 3.50273 6.06074ZM21 4.30937C21 3.82539 20.6062 3.43574 20.1264 3.43574H11.3777C10.8937 3.43574 10.5041 3.82949 10.5041 4.30937C10.5041 4.78926 10.8978 5.18301 11.3777 5.18301H20.1264C20.6103 5.18711 21 4.79336 21 4.30937ZM5.34023 12.3074L8.48203 9.32148C8.84297 9.00156 8.87578 8.44785 8.55175 8.08691C8.23183 7.72597 7.67812 7.69316 7.31718 8.01719C7.30078 8.02949 7.28847 8.04179 7.27617 8.0582L4.12617 11.0605C3.78164 11.3928 3.23613 11.3928 2.8875 11.0605L1.49707 9.67422C1.14843 9.33789 0.594724 9.34609 0.258396 9.69473C-0.0697294 10.0352 -0.0697294 10.5725 0.258396 10.9088L1.64472 12.2951C2.66191 13.3123 4.31484 13.3164 5.34023 12.3074ZM21 11.3107C21 10.8268 20.6062 10.4371 20.1264 10.4371H11.3777C10.8937 10.4371 10.5041 10.8309 10.5041 11.3107C10.5041 11.7947 10.8978 12.1844 11.3777 12.1844H20.1264C20.6103 12.1844 21 11.7947 21 11.3107ZM5.34023 19.3088L8.47793 16.3229C8.83886 16.0029 8.87168 15.4492 8.54765 15.0883C8.22773 14.7273 7.67402 14.6945 7.31308 15.0186C7.29668 15.0309 7.28437 15.0432 7.27207 15.0596L4.12207 18.0619C3.78164 18.4064 3.22793 18.4064 2.8834 18.066C2.87109 18.0537 2.85879 18.0414 2.84648 18.0291L1.46015 16.7904C1.09922 16.4705 0.545505 16.4992 0.225583 16.8602C-0.0943388 17.2211 -0.0656279 17.7748 0.29531 18.0947L1.64472 19.2965C2.66191 20.3137 4.31484 20.3178 5.34023 19.3088ZM21 18.3121C21 17.8281 20.6062 17.4385 20.1264 17.4385H11.3777C10.8937 17.4385 10.5041 17.8322 10.5041 18.3121C10.5041 18.7961 10.8978 19.1857 11.3777 19.1857H20.1264C20.6103 19.1857 21 18.7961 21 18.3121Z"
    fill="#C5D6DF"
    />
</svg>