<svg width="42" height="42" viewBox="0 0 42 42" fill="none" xmlns="http://www.w3.org/2000/svg">
<path d="M12.2473 24.5027C12.2473 25.4707 11.4598 26.25 10.5 26.25H8.75273C7.78477 26.25 7.00547 25.4625 7.00547 24.5027C7.00547 23.5348 7.79297 22.7555 8.75273 22.7555H10.5C11.468 22.7473 12.2473 23.5348 12.2473 24.5027ZM19.2527 22.7473H17.5055C16.5375 22.7473 15.7582 23.5348 15.7582 24.4945C15.7582 25.4625 16.5457 26.2418 17.5055 26.2418H19.2527C20.2207 26.2418 21 25.4543 21 24.4945C21 23.5348 20.2125 22.7473 19.2527 22.7473ZM10.5 29.7527H8.75273C7.78477 29.7527 7.00547 30.5402 7.00547 31.5C7.00547 32.468 7.79297 33.2473 8.75273 33.2473H10.5C11.468 33.2473 12.2473 32.4598 12.2473 31.5C12.2473 30.532 11.468 29.7527 10.5 29.7527ZM19.2527 29.7527H17.5055C16.5375 29.7527 15.7582 30.5402 15.7582 31.5C15.7582 32.468 16.5457 33.2473 17.5055 33.2473H19.2527C20.2207 33.2473 21 32.4598 21 31.5C21 30.532 20.2125 29.7527 19.2527 29.7527ZM10.5 8.75273H8.75273C7.78477 8.75273 7.00547 9.54023 7.00547 10.5C7.00547 11.4598 7.79297 12.2473 8.75273 12.2473H10.5C11.468 12.2473 12.2473 11.4598 12.2473 10.5C12.2473 9.54023 11.468 8.75273 10.5 8.75273ZM19.2527 8.75273H17.5055C16.5375 8.75273 15.7582 9.54023 15.7582 10.5C15.7582 11.4598 16.5457 12.2473 17.5055 12.2473H19.2527C20.2207 12.2473 21 11.4598 21 10.5C21 9.54023 20.2125 8.75273 19.2527 8.75273ZM10.5 15.75H8.75273C7.78477 15.75 7.00547 16.5375 7.00547 17.4973C7.00547 18.4652 7.79297 19.2445 8.75273 19.2445H10.5C11.468 19.2445 12.2473 18.457 12.2473 17.4973C12.2473 16.5375 11.468 15.75 10.5 15.75ZM19.2527 15.75H17.5055C16.5375 15.75 15.7582 16.5375 15.7582 17.4973C15.7582 18.4652 16.5457 19.2445 17.5055 19.2445H19.2527C20.2207 19.2445 21 18.457 21 17.4973C21 16.5375 20.2125 15.75 19.2527 15.75ZM42 17.4973V33.2473C41.9918 38.0789 38.0789 41.9918 33.2473 42H8.75273C3.92109 41.9918 0.00820313 38.0789 0 33.2473V8.75273C0.00820313 3.92109 3.92109 0.00820313 8.75273 0H19.2527C24.0844 0.00820313 27.9973 3.92109 28.0055 8.75273H33.2555C38.0789 8.75273 41.9918 12.6738 42 17.4973ZM8.75273 38.4973H24.5027V8.75273C24.5027 5.85703 22.1484 3.50273 19.2527 3.50273H8.75273C5.85703 3.50273 3.50273 5.85703 3.50273 8.75273V33.2555C3.50273 36.1512 5.84883 38.4973 8.75273 38.4973ZM38.4973 17.4973C38.4973 14.6016 36.143 12.2473 33.2473 12.2473H27.9973V38.4973H33.2473C36.143 38.4973 38.4973 36.143 38.4973 33.2473V17.4973ZM33.2473 22.7473C32.2793 22.7473 31.5 23.5348 31.5 24.4945C31.5 25.4625 32.2875 26.2418 33.2473 26.2418C34.207 26.2418 34.9945 25.4543 34.9945 24.4945C35.0027 23.5348 34.2152 22.7473 33.2473 22.7473ZM33.2473 29.7527C32.2793 29.7527 31.5 30.5402 31.5 31.5C31.5 32.468 32.2875 33.2473 33.2473 33.2473C34.207 33.2473 34.9945 32.4598 34.9945 31.5C35.0027 30.532 34.2152 29.7527 33.2473 29.7527ZM33.2473 15.75C32.2793 15.75 31.5 16.5375 31.5 17.4973C31.5 18.4652 32.2875 19.2445 33.2473 19.2445C34.207 19.2445 34.9945 18.457 34.9945 17.4973C35.0027 16.5375 34.2152 15.75 33.2473 15.75Z" fill="#00E56E"/>
</svg>
