<svg width="40" height="40" viewBox="0 0 40 40" fill="none" xmlns="http://www.w3.org/2000/svg">
<path d="M35.4269 4.6072C29.5071 -1.1134 20.2682 -1.55825 13.833 3.56141C11.6463 0.0650553 7.03075 -1.01195 3.52419 1.17328C0.01762 3.3585 -1.05231 7.96307 1.13441 11.4672C2.39178 13.4808 4.52383 14.7763 6.89018 14.9636C6.36693 18.179 6.85894 21.4802 8.29593 24.3991C8.45993 24.7034 8.41307 25.0781 8.17878 25.3356L3.33675 28.2466C0.290961 29.8465 -0.880498 33.616 0.720496 36.6675C1.79824 38.7123 3.91467 39.9922 6.22635 40C6.48407 40 6.73398 39.9844 6.98389 39.9532C8.85823 39.7346 10.5295 38.6733 11.5213 37.0656L14.9654 31.86C15.2232 31.6103 15.6058 31.5479 15.926 31.7118C22.3144 34.8023 29.9679 33.3507 34.7787 28.1374C37.9729 25 39.8316 20.7622 39.9878 16.2903C40.1596 11.9277 38.5118 7.69773 35.4269 4.6072ZM3.33675 7.53383C3.33675 5.23155 5.20328 3.37411 7.49934 3.37411C9.7954 3.37411 11.6619 5.23935 11.6619 7.53383C11.6619 9.82832 9.7954 11.6936 7.49934 11.6936C5.20328 11.6936 3.33675 9.83612 3.33675 7.53383ZM17.3943 28.7227C15.6761 27.872 13.5987 28.3091 12.3648 29.7763C12.3257 29.8231 12.2867 29.8777 12.2555 29.9246L8.70984 35.2862C7.8742 36.6519 6.08578 37.0812 4.71907 36.2461C3.72724 35.6374 3.18837 34.4979 3.36018 33.3429C3.50857 32.3985 4.10211 31.5791 4.96118 31.1577L10.0297 28.1061C10.1 28.0593 10.1703 28.0125 10.2406 27.9579C11.7088 26.7248 12.1305 24.6488 11.2792 22.9397C10.1937 20.7466 9.78759 18.2726 10.1234 15.8455L24.1731 29.8855C21.8536 30.1587 19.4951 29.7529 17.3943 28.7227ZM32.428 25.7882C31.1159 27.0994 29.5774 28.153 27.8749 28.8944C27.8593 28.8788 27.8515 28.8554 27.8359 28.8398L12.2633 13.27C13.9814 11.8653 14.9889 9.75808 14.9967 7.53383C14.9967 7.33873 14.9498 7.15142 14.942 6.95631C20.0574 2.22687 27.953 2.22687 33.0684 6.95631C35.4972 9.39908 36.8014 12.7472 36.653 16.1889C36.5281 19.8179 35.013 23.244 32.428 25.7882Z" fill="#00E56E"/>
</svg>
