<svg width="45" height="44" viewBox="0 0 45 44" fill="none" xmlns="http://www.w3.org/2000/svg">
<path d="M32.405 11.3848C34.2725 9.39255 35.4176 6.85925 35.6731 4.16279C35.9373 2.15332 34.4751 0.324196 32.4226 0.0665722C32.1055 0.0236349 31.7884 0.0236349 31.4801 0.0665722C28.0182 0.332783 24.847 2.05886 22.8034 4.79826C22.1603 3.24393 21.2619 1.80124 20.1343 0.530295C19.3944 -0.182464 18.2052 -0.173877 17.4741 0.538882C16.7606 1.24305 16.7429 2.3766 17.4476 3.08936C19.3063 5.34786 20.3986 8.12161 20.566 11.0242H15.9766C6.9035 11.2904 -0.240448 18.667 0.00619913 27.5121C-0.2933 37.7741 10.612 47.2461 20.2048 42.875C21.7023 41.9476 23.6138 41.9648 25.1025 42.9094C26.3269 43.605 27.7187 43.9742 29.1369 44C48.4106 43.4848 50.8594 15.7644 32.405 11.3848ZM26.7233 5.84593C28.1768 4.60075 30.009 3.85364 31.9381 3.70765C31.7884 5.58831 31.0132 7.36591 29.7447 8.78284C28.2825 10.028 26.459 10.7751 24.5211 10.9211C24.6797 9.04046 25.446 7.26286 26.7233 5.84593ZM29.1193 40.3417C28.2913 40.3074 27.4897 40.0669 26.785 39.6462C25.4989 38.9162 24.0366 38.5298 22.5479 38.5126C21.1385 38.547 19.7555 38.9162 18.5311 39.6032C11.2815 42.6604 3.56496 35.112 3.75875 27.5207C3.5121 20.6936 8.97357 14.9658 15.9678 14.6996H29.1193C45.2835 15.2835 45.2835 39.7664 29.1193 40.3417Z" fill="#00E56E"/>
</svg>
