<svg width="25" height="13" viewBox="0 0 25 13" fill="none" xmlns="http://www.w3.org/2000/svg">
    <path d="M1 5.90049H0.5V6.90049H1V5.90049ZM23.5 6.40049L23.7864 6.81029L24.3908 6.38787L23.7747 5.98273L23.5 6.40049ZM18.5685 0.825965L18.394 0.357412L17.4569 0.706459L17.6314 1.17501L18.5685 0.825965ZM17.661 11.5611L17.4216 12.0001L18.2996 12.4788L18.5389 12.0399L17.661 11.5611ZM1 6.90049H23.5V5.90049H1V6.90049ZM17.6314 1.17501C17.8907 1.87107 18.3884 2.56865 18.9539 3.20833C19.5244 3.85375 20.1905 4.46947 20.8193 5.00063C21.4493 5.53274 22.0492 5.98597 22.4912 6.30603C22.7125 6.46624 22.8948 6.5935 23.0223 6.68106C23.0861 6.72485 23.1362 6.75874 23.1707 6.78188C23.1879 6.79345 23.2012 6.80233 23.2104 6.80843C23.215 6.81148 23.2186 6.81383 23.221 6.81547C23.2223 6.81629 23.2232 6.81693 23.2239 6.81739C23.2243 6.81762 23.2246 6.81781 23.2248 6.81795C23.2249 6.81802 23.225 6.8181 23.2251 6.81813C23.2252 6.81819 23.2252 6.81824 23.5 6.40049C23.7747 5.98273 23.7748 5.98276 23.7748 5.98278C23.7748 5.98277 23.7748 5.98277 23.7747 5.98275C23.7747 5.98272 23.7746 5.98263 23.7744 5.98251C23.774 5.98225 23.7733 5.98182 23.7724 5.98121C23.7706 5.97999 23.7677 5.97807 23.7637 5.97546C23.7559 5.97024 23.7439 5.96225 23.728 5.95161C23.6963 5.93031 23.6491 5.8984 23.5884 5.8567C23.4669 5.77328 23.2915 5.65082 23.0777 5.49606C22.6497 5.18619 22.0706 4.7485 21.4646 4.23666C20.8575 3.72387 20.2305 3.14262 19.7031 2.546C19.1706 1.94364 18.7653 1.35411 18.5685 0.825965L17.6314 1.17501ZM23.5 6.40049C23.2135 5.99068 23.2134 5.99073 23.2134 5.99079C23.2133 5.99082 23.2132 5.99089 23.2131 5.99096C23.2129 5.9911 23.2127 5.99128 23.2124 5.9915C23.2117 5.99194 23.2109 5.99255 23.2097 5.99333C23.2075 5.99488 23.2044 5.9971 23.2003 5.99998C23.1921 6.00574 23.1803 6.01413 23.1649 6.02507C23.1342 6.04693 23.0896 6.07897 23.0325 6.12047C22.9185 6.20345 22.7548 6.32435 22.5543 6.47744C22.1535 6.78339 21.604 7.21911 21.0084 7.73875C19.8304 8.76662 18.4223 10.1652 17.661 11.5611L18.5389 12.0399C19.2101 10.8092 20.502 9.50774 21.6659 8.49226C22.2412 7.99022 22.7731 7.56844 23.1611 7.2723C23.3549 7.12434 23.5123 7.00805 23.6209 6.9291C23.6751 6.88964 23.7171 6.85953 23.7452 6.83949C23.7593 6.82946 23.7699 6.82196 23.7768 6.81707C23.7803 6.81462 23.7828 6.81282 23.7844 6.81169C23.7853 6.81112 23.7858 6.81072 23.7862 6.81049C23.7863 6.81037 23.7864 6.8103 23.7865 6.81027C23.7865 6.81025 23.7865 6.81026 23.7865 6.81025C23.7865 6.81027 23.7864 6.81029 23.5 6.40049Z" fill="#1789CC"/>
</svg>
