<svg width="13" height="7" viewBox="0 0 13 7" fill="none" xmlns="http://www.w3.org/2000/svg">
<path d="M0.666641 1.49554C0.666218 1.62361 0.693692 1.75016 0.747045 1.86588C0.800396 1.98159 0.878271 2.08354 0.974946 2.16423L5.97447 6.30498C6.12357 6.43107 6.31059 6.5 6.50359 6.5C6.69659 6.5 6.88361 6.43107 7.03271 6.30498L12.0322 2.01849C12.2024 1.87297 12.3094 1.66387 12.3297 1.43718C12.35 1.21048 12.282 0.984775 12.1406 0.8097C11.9991 0.634626 11.7959 0.524529 11.5755 0.503628C11.3552 0.482727 11.1358 0.552735 10.9657 0.698252L6.49942 4.53037L2.03318 0.826847C1.91087 0.722013 1.76193 0.655421 1.60399 0.63495C1.44605 0.614478 1.28571 0.640983 1.14195 0.711329C0.998191 0.781675 0.877027 0.892918 0.792792 1.03189C0.708558 1.17087 0.664782 1.33177 0.666641 1.49554Z" fill="#1E1E1E"/>
</svg>
