<svg width="50" height="41" viewBox="0 0 50 41" fill="none" xmlns="http://www.w3.org/2000/svg">
<path d="M47.9199 36.9023V32.8014C47.9004 21.1516 38.877 11.4322 27.0898 10.3661V7.64816C29.082 6.51487 29.7656 4.0082 28.6133 2.04895C27.4609 0.0897137 24.9121 -0.582575 22.9199 0.550712C20.9277 1.684 20.2441 4.19067 21.3867 6.14992C21.748 6.77418 22.2754 7.29281 22.9102 7.64816V10.3757C11.123 11.4418 2.09961 21.1612 2.08008 32.8014V36.9023C0.9375 36.9023 0 37.8243 0 38.948C0 40.0813 0.9375 40.9937 2.08008 40.9937H47.9102C49.0625 40.9937 49.9902 40.0717 49.9902 38.948C50 37.8243 49.0625 36.9023 47.9199 36.9023ZM6.25 32.8014C7.23633 8.34926 42.7734 8.36847 43.75 32.8014V36.9023H6.25V32.8014Z" fill="#00EF78"/>
</svg>
