<svg
    width="14"
    height="18"
    viewBox="0 0 14 18"
    fill="none"
    xmlns="http://www.w3.org/2000/svg"
>
    <path
    d="M13.2979 3.39937H11.1291C10.7945 1.77199 9.36067 0.603958 7.70049 0.600677H6.29951C4.63604 0.603958 3.20553 1.77199 2.87087 3.39937H0.698852C0.314975 3.39937 0 3.71434 0 4.1015C0 4.48865 0.314975 4.80035 0.698852 4.80035H1.3977V13.8985C1.40098 15.831 2.96602 17.3961 4.89852 17.3994H9.09819C11.0307 17.3961 12.5957 15.831 12.599 13.8985V4.80035H13.2979C13.685 4.80035 13.9967 4.48537 13.9967 4.1015C13.9967 3.71762 13.685 3.39937 13.2979 3.39937ZM6.29951 2.00166H7.70049C8.58964 2.00166 9.38364 2.56271 9.68221 3.40265H4.31779C4.61636 2.56271 5.41036 2.00166 6.29951 2.00166ZM11.198 13.8985C11.198 15.0567 10.2564 15.9984 9.09819 15.9984H4.89852C3.74033 15.9984 2.79869 15.0567 2.79869 13.8985V4.80035H11.198V13.8985Z"
    fill="#FF0000"
    />
    <path
    d="M5.60122 13.1997C5.98838 13.1997 6.30007 12.8847 6.30007 12.5008V8.30118C6.30007 7.91402 5.9851 7.60233 5.60122 7.60233C5.21734 7.60233 4.90237 7.9173 4.90237 8.30118V12.5008C4.89909 12.8847 5.21406 13.1997 5.60122 13.1997Z"
    fill="#FF0000"
    />
    <path
    d="M8.40002 13.1997C8.78718 13.1997 9.09887 12.8847 9.09887 12.5008V8.30118C9.09887 7.91402 8.7839 7.60233 8.40002 7.60233C8.01287 7.60233 7.70117 7.9173 7.70117 8.30118V12.5008C7.70117 12.8847 8.01287 13.1997 8.40002 13.1997Z"
    fill="#FF0000"
    />
</svg>