<svg
    width="14"
    height="14"
    viewBox="0 0 14 14"
    fill="none"
    xmlns="http://www.w3.org/2000/svg"
>
    <path
    d="M10.8832 0.541418L3.77111 7.65353C3.2215 8.2004 2.91525 8.94142 2.91799 9.71525V10.5C2.91799 10.8227 3.18049 11.0824 3.50041 11.0824H4.28517C5.059 11.0852 5.80275 10.7762 6.34689 10.2293L13.459 3.1172C14.1699 2.40626 14.1699 1.25509 13.459 0.541418C12.7371 -0.14491 11.6024 -0.14491 10.8832 0.541418ZM12.6332 2.29142L5.52111 9.40353C5.19299 9.73165 4.74728 9.91486 4.28517 9.91486H4.08556V9.71525C4.08556 9.2504 4.2715 8.80743 4.59689 8.47931L11.709 1.3672C11.9688 1.12111 12.3762 1.12111 12.6332 1.3672C12.8875 1.62423 12.8875 2.03712 12.6332 2.29142Z"
    fill="#00E56E"
    />
    <path
    d="M13.4176 5.23906C13.0949 5.23906 12.8352 5.50156 12.8352 5.82148V8.75H10.5C9.53477 8.75 8.75 9.53477 8.75 10.5V12.8324H2.91758C1.95234 12.8324 1.16758 12.0477 1.16758 11.0824V2.91758C1.16758 1.95234 1.95234 1.16758 2.91758 1.16758H8.19219C8.51484 1.16758 8.77461 0.905078 8.77461 0.585156C8.77461 0.265234 8.51211 0 8.19219 0H2.91758C1.30703 0.00273438 0.00273438 1.30703 0 2.91758V11.0852C0.00273438 12.693 1.30703 13.9973 2.91758 14H9.53477C10.3086 14.0027 11.0523 13.6937 11.5965 13.1469L13.1469 11.5965C13.6965 11.0496 14.0027 10.3086 14.0027 9.53477V5.82148C14 5.49883 13.7375 5.23906 13.4176 5.23906ZM10.7707 12.3211C10.5355 12.5563 10.2402 12.7176 9.91484 12.7887V10.5C9.91484 10.1773 10.1773 9.91758 10.4973 9.91758H12.7859C12.7148 10.2402 12.5508 10.5355 12.3184 10.7707L10.7707 12.3211Z"
    fill="#00E56E"
    />
</svg>