<svg width="50" height="50" viewBox="0 0 50 50" fill="none" xmlns="http://www.w3.org/2000/svg">
<rect width="50" height="50" rx="16" fill="#EF3900"/>
<path d="M32.6374 15H19.0294C16.3451 15.0044 14.1713 17.122 14.1667 19.7367V31.1011C14.1713 33.7158 16.3451 35.8333 19.0294 35.8377H32.642C35.3263 35.8333 37.5001 33.7158 37.5046 31.1011V19.7367C37.4955 17.122 35.3217 15.0044 32.6374 15ZM19.0294 16.8956H32.642C33.8315 16.9 34.9024 17.6058 35.3445 18.6846L27.8979 25.9338C26.7585 27.0392 24.9128 27.0392 23.7735 25.9338L16.3269 18.6801C16.769 17.6058 17.8354 16.8956 19.0294 16.8956ZM32.6374 33.9422H19.0294C17.4207 33.9422 16.1127 32.6681 16.1127 31.1011V21.1572L22.3972 27.2745C24.2976 29.1212 27.3738 29.1212 29.2742 27.2745L35.5587 21.1572V31.1011C35.5541 32.6681 34.2507 33.9422 32.6374 33.9422Z" fill="white"/>
</svg>
