<svg width="30" height="30" viewBox="0 0 30 30" fill="none" xmlns="http://www.w3.org/2000/svg">
<path d="M24.777 10.1018C22.0746 10.1018 19.8828 7.90833 19.8828 5.20375C19.8828 2.49918 22.0746 0.299927 24.777 0.299927C27.4795 0.299927 29.677 2.49344 29.677 5.19801C29.677 7.90258 27.4852 10.1018 24.777 10.1018ZM24.777 2.75184C23.4229 2.75184 22.327 3.8486 22.327 5.20375C22.327 6.55891 23.4229 7.65567 24.777 7.65567C26.1311 7.65567 27.227 6.55891 27.227 5.20375C27.227 3.8486 26.1311 2.75184 24.777 2.75184ZM26.5557 29.6999H15.7057C14.5869 29.7114 13.5541 29.12 12.986 28.1553C12.4352 27.225 12.418 26.0709 12.9516 25.1291L18.3795 15.3789C19.2631 13.8572 21.2082 13.3347 22.7287 14.219C23.2106 14.5004 23.6123 14.8966 23.8877 15.3789L29.3041 25.1234C29.8377 26.0651 29.8262 27.225 29.2696 28.1553C28.7074 29.12 27.6746 29.7057 26.5557 29.6999ZM21.1336 16.223C20.8811 16.2173 20.6459 16.3493 20.5196 16.5675L15.0918 26.3178C14.9828 26.5015 14.9885 26.7312 15.0975 26.9092C15.2237 27.1217 15.459 27.2538 15.7115 27.2423H26.5615C26.8139 27.248 27.0434 27.1217 27.1754 26.9035C27.2844 26.7197 27.2844 26.49 27.1754 26.3063L21.7533 16.5675C21.6213 16.3493 21.386 16.2173 21.1336 16.223ZM10.0885 28.4768C10.0885 27.7993 9.53768 27.2538 8.86637 27.2538H4.3967C3.4844 27.2538 2.74424 26.513 2.74424 25.6C2.74424 25.3244 2.81309 25.0545 2.94506 24.8133L11.0869 9.74582C11.368 9.2118 11.9303 8.87875 12.5328 8.87875C13.141 8.87301 13.6975 9.20606 13.9787 9.74582L15.4819 12.525C15.8033 13.1222 16.5492 13.3404 17.1401 13.0189C17.7369 12.6973 17.9549 11.9508 17.6336 11.3594L16.1303 8.5859C15.0574 6.59336 12.5729 5.85262 10.5819 6.92641C9.88194 7.3054 9.30244 7.87961 8.92375 8.5859L0.79342 23.6419C-0.285269 25.6345 0.454895 28.1266 2.45162 29.2061C3.04834 29.5277 3.71965 29.6999 4.3967 29.6999H8.86637C9.54342 29.6999 10.0885 29.1487 10.0885 28.4768Z" fill="#DAE2E7"/>
</svg>
