<svg width="132" height="51" viewBox="0 0 132 51" fill="none" xmlns="http://www.w3.org/2000/svg">
<path d="M70.7214 9.14795H75.7709C75.9991 9.14795 76.1988 9.34806 76.1988 9.57676V32.5611C76.1988 32.7898 75.9991 32.9899 75.7709 32.9899H70.7214C70.4932 32.9899 70.2935 32.7898 70.2935 32.5611V9.57676C70.2935 9.34806 70.4647 9.14795 70.7214 9.14795Z" fill="#0A0046"/>
<path d="M99.8487 32.9897H94.7992C94.571 32.9897 94.3713 32.7896 94.3713 32.5609V17.9813C94.3713 15.3227 92.9164 13.9791 89.978 13.9791C87.0396 13.9791 85.5846 15.3227 85.5846 17.9813V32.5609C85.5846 32.7896 85.3849 32.9897 85.1567 32.9897H80.1072C79.879 32.9897 79.6793 32.7896 79.6793 32.5609V17.2952C79.6793 11.9494 83.0741 8.74756 89.978 8.74756C96.9103 8.74756 100.277 11.9494 100.277 17.2952V32.5609C100.277 32.7896 100.077 32.9897 99.8487 32.9897Z" fill="#0A0046"/>
<path d="M60.8792 9.29072C59.624 8.94767 58.169 8.74756 56.4858 8.74756C54.8312 8.74756 53.3477 8.94767 52.0925 9.29072C48.1556 10.4342 46.1872 13.2358 46.1872 17.2952V24.4421V39.622C46.1872 39.8507 46.3869 40.0508 46.6151 40.0508H51.6646C51.8928 40.0508 52.0925 39.8507 52.0925 39.622V32.4466C53.3477 32.8182 54.8027 32.9897 56.4858 32.9897C58.1405 32.9897 59.624 32.7896 60.8792 32.4466C64.8446 31.3316 66.7845 28.5015 66.7845 24.4421V17.2952C66.7845 13.2644 64.8446 10.4342 60.8792 9.29072ZM60.8792 23.7846C60.8792 26.4432 59.4243 27.7868 56.4858 27.7868C53.5474 27.7868 52.0925 26.4432 52.0925 23.7846V17.9813C52.0925 15.3227 53.5474 13.9791 56.4858 13.9791C59.4243 13.9791 60.8792 15.3227 60.8792 17.9813V23.7846Z" fill="#0A0046"/>
<path d="M103.272 17.2954H108.207C108.436 17.2954 108.635 17.4955 108.635 17.7242V21.8408C108.635 22.0695 108.436 22.2696 108.207 22.2696H103.272C103.044 22.2696 102.844 22.0695 102.844 21.8408V17.7528C102.844 17.4955 103.044 17.2954 103.272 17.2954Z" fill="#0A0046"/>
<path d="M131.287 26.2145C131.507 26.2145 131.686 26.0353 131.686 25.8143C131.686 25.5933 131.507 25.4141 131.287 25.4141C131.066 25.4141 130.887 25.5933 130.887 25.8143C130.887 26.0353 131.066 26.2145 131.287 26.2145Z" fill="#0A0046"/>
<path d="M117.365 22.6699H131.572C131.8 22.6699 132 22.4698 132 22.2411V17.2383C132 11.9496 128.491 8.77637 121.616 8.77637C114.769 8.77637 111.203 12.0353 111.203 17.2383V24.9569C111.203 30.1598 114.683 33.3616 121.616 33.3616C128.462 33.3616 132 30.4171 132 26.2147V25.8717C132 25.643 131.8 25.4428 131.572 25.4428H126.694C126.494 25.4428 126.323 25.6144 126.294 25.8145C126.209 27.6155 124.668 28.5303 121.673 28.5303C118.506 28.5303 116.937 27.1867 116.937 24.5566V23.0987C116.937 22.87 117.108 22.6699 117.365 22.6699ZM116.937 17.6099C116.937 14.8941 118.506 13.5791 121.644 13.5791C124.725 13.5791 126.294 14.9227 126.294 17.5813V18.6104C126.294 18.7248 126.209 18.8391 126.066 18.8391H117.137C117.023 18.8391 116.909 18.7534 116.909 18.6104V17.6099H116.937Z" fill="#0A0046"/>
<path d="M31.5237 34.1621C32.3225 32.3897 33.0642 30.5887 33.6918 28.7305C32.3225 29.245 31.0387 29.874 29.812 30.5887C30.4111 31.7607 30.9816 32.9614 31.5237 34.1621Z" fill="url(#paint0_linear_779_126)"/>
<path d="M29.7835 30.5885C31.0102 29.8452 32.3225 29.2449 33.6633 28.7303C34.7474 25.4427 35.4606 22.1266 35.6032 18.9248C31.8945 19.6681 28.4141 21.0117 25.2475 22.8985C26.9306 25.357 28.4426 27.9299 29.7835 30.5885Z" fill="url(#paint1_linear_779_126)"/>
<path d="M17.9157 28.816C19.9983 31.0459 21.7955 33.5901 23.1934 36.3345C25.0192 34.0475 27.273 32.1036 29.7834 30.5885C28.4141 27.9298 26.9021 25.357 25.276 22.8984C22.5373 24.4993 20.0553 26.5005 17.9157 28.816Z" fill="url(#paint2_linear_779_126)"/>
<path d="M10.6695 22.9557C13.3512 24.5566 15.7761 26.5292 17.9157 28.8161C20.0839 26.5006 22.5658 24.4994 25.276 22.8985C25.2475 22.87 25.2475 22.8414 25.2189 22.8128C25.2475 22.8414 25.2475 22.87 25.276 22.8985C28.4141 21.0404 31.9231 19.6682 35.6317 18.9249C35.6603 18.5818 35.6603 18.2102 35.6603 17.8672C35.6603 8.00449 27.6724 0 17.8301 0C7.9879 0 0 8.00449 0 17.8672C0 18.2102 0 18.5533 0.0285282 18.8963C3.85131 19.6396 7.41733 21.0404 10.6695 22.9557Z" fill="url(#paint3_linear_779_126)"/>
<path d="M10.6696 22.9556L10.641 22.9842C8.92933 25.4141 7.36028 27.9584 5.93387 30.5598C8.50141 32.075 10.7551 34.0475 12.5809 36.3631C13.9788 33.6187 15.7761 31.0744 17.8587 28.8446L17.8872 28.816C15.7761 26.529 13.3512 24.5565 10.6696 22.9556Z" fill="url(#paint4_linear_779_126)"/>
<path d="M17.9157 28.8159L17.8872 28.8445C15.8046 31.0743 14.0073 33.6186 12.6095 36.363C15.8046 40.3938 17.7731 45.4538 17.8872 50.9712C18.0013 45.4538 19.9697 40.3938 23.1649 36.363C23.1934 36.3344 23.1934 36.3344 23.222 36.3058C21.767 33.59 19.9983 31.0457 17.9157 28.8159Z" fill="url(#paint5_linear_779_126)"/>
<path d="M9.78519 44.1674C12.8092 48.3126 15.8617 50.9998 17.8301 50.9998H17.8587C17.7446 45.4824 15.7761 40.4224 12.581 36.3916C11.3542 38.8215 10.3843 41.423 9.78519 44.1674Z" fill="url(#paint6_linear_779_126)"/>
<path d="M23.1934 36.3345C23.1649 36.3631 23.1649 36.3631 23.1364 36.3916C19.9412 40.4225 17.9728 45.4825 17.8586 50.9998C19.6844 50.9427 22.7655 48.1411 25.8751 43.853C25.9036 43.8244 25.9036 43.7958 25.9321 43.7672C25.333 41.1658 24.3916 38.6501 23.1934 36.3345Z" fill="url(#paint7_linear_779_126)"/>
<path d="M29.7834 30.5884C27.2444 32.1035 25.0192 34.0475 23.1934 36.3345C24.3916 38.6786 25.333 41.1657 25.9607 43.7958C27.9291 41.0514 29.8975 37.7352 31.5522 34.1618C30.9816 32.9611 30.4111 31.7605 29.7834 30.5884Z" fill="url(#paint8_linear_779_126)"/>
<path d="M1.88287 28.6445C2.48197 30.5599 3.2237 32.4467 4.05102 34.2477C4.65011 32.9898 5.27773 31.7606 5.93388 30.5599C4.65011 29.8166 3.30928 29.1591 1.88287 28.6445Z" fill="url(#paint9_linear_779_126)"/>
<path d="M5.93386 30.5884C5.27771 31.7891 4.65009 33.0183 4.05099 34.2762C5.73416 37.9925 7.73113 41.423 9.78516 44.196C10.4128 41.4516 11.3542 38.8502 12.6095 36.3916C10.7551 34.076 8.50139 32.1035 5.93386 30.5884Z" fill="url(#paint10_linear_779_126)"/>
<path d="M0.0285339 18.8965C0.142647 22.0697 0.827324 25.4144 1.88287 28.6734C3.30928 29.188 4.6501 29.8455 5.93387 30.5887C7.36028 27.9587 8.92933 25.443 10.641 23.0131L10.6696 22.9845C7.41734 21.0405 3.85131 19.6398 0.0285339 18.8965Z" fill="url(#paint11_linear_779_126)"/>
<path d="M29.5552 30.0738C28.8991 30.7313 27.815 30.7313 27.1589 30.0738L24.8481 27.7583L22.9367 25.8429C22.2805 25.1854 22.2805 24.0991 22.9367 23.4416C23.279 23.0985 23.707 22.9556 24.1349 22.9556C24.5628 22.9556 24.9907 23.1271 25.3331 23.4416L27.1589 25.2711L29.5552 27.6725C30.2114 28.33 30.2114 29.4163 29.5552 30.0738Z" fill="white"/>
<path d="M26.9877 25.071C27.1018 26.1002 26.7309 27.7011 25.8466 28.7302L22.9367 25.8429C22.2805 25.1854 22.2805 24.0991 22.9367 23.4416C23.279 23.0985 23.707 22.9556 24.1349 22.9556C24.5628 22.9556 24.9907 23.1271 25.3331 23.4416L26.9877 25.071Z" fill="#D0D2D3"/>
<path d="M17.8301 29.7309C23.8173 29.7309 28.6708 24.8672 28.6708 18.8676C28.6708 12.868 23.8173 8.00439 17.8301 8.00439C11.843 8.00439 6.98941 12.868 6.98941 18.8676C6.98941 24.8672 11.843 29.7309 17.8301 29.7309Z" fill="white"/>
<path d="M23.3361 13.0645C21.9096 11.6923 19.9697 10.8633 17.8301 10.8633C17.4592 10.8633 17.0884 10.8919 16.7175 10.949C16.4893 10.9776 16.3466 11.2349 16.4322 11.435C16.6605 12.0925 16.746 12.8072 16.6319 13.5505C16.3181 15.4087 14.7776 16.8381 12.9233 17.0096C12.0959 17.0953 11.2972 16.9238 10.6125 16.5522C10.4128 16.4378 10.156 16.5522 10.099 16.7809C9.9278 17.4384 9.81369 18.1531 9.81369 18.8678C9.81369 19.0965 9.81369 19.3252 9.84222 19.5253C10.1846 23.8134 13.8647 27.1295 18.258 26.9008C22.309 26.6721 25.6183 23.3846 25.818 19.3252C25.9607 16.8381 24.9622 14.6082 23.3361 13.0645ZM14.0929 22.4984C13.4082 22.4984 12.8377 21.9266 12.8377 21.2405C12.8377 20.5544 13.4082 19.9827 14.0929 19.9827C14.7776 19.9827 15.3482 20.5544 15.3482 21.2405C15.3482 21.9266 14.7776 22.4984 14.0929 22.4984Z" fill="url(#paint12_linear_779_126)"/>
<defs>
<linearGradient id="paint0_linear_779_126" x1="30.291" y1="32.6806" x2="34.2334" y2="29.3794" gradientUnits="userSpaceOnUse">
<stop offset="0.0766757" stop-color="#195A80"/>
<stop offset="0.4654" stop-color="#0E9A7D"/>
<stop offset="1" stop-color="#00EF78"/>
</linearGradient>
<linearGradient id="paint1_linear_779_126" x1="27.5302" y1="30.4172" x2="32.4212" y2="18.905" gradientUnits="userSpaceOnUse">
<stop offset="0.0766757" stop-color="#195A80"/>
<stop offset="0.4654" stop-color="#0E9A7D"/>
<stop offset="1" stop-color="#00EF78"/>
</linearGradient>
<linearGradient id="paint2_linear_779_126" x1="20.8391" y1="34.954" x2="25.237" y2="27.3168" gradientUnits="userSpaceOnUse">
<stop stop-color="#195A80"/>
<stop offset="0.4211" stop-color="#0E9A7D"/>
<stop offset="1" stop-color="#00EF78"/>
</linearGradient>
<linearGradient id="paint3_linear_779_126" x1="5.0821" y1="24.9325" x2="29.7321" y2="4.29151" gradientUnits="userSpaceOnUse">
<stop offset="0.0766757" stop-color="#195A80"/>
<stop offset="0.4654" stop-color="#0E9A7D"/>
<stop offset="1" stop-color="#00EF78"/>
</linearGradient>
<linearGradient id="paint4_linear_779_126" x1="14.4262" y1="36.04" x2="10.6481" y2="26.5131" gradientUnits="userSpaceOnUse">
<stop offset="0.0766757" stop-color="#195A80"/>
<stop offset="0.4654" stop-color="#0E9A7D"/>
<stop offset="1" stop-color="#00EF78"/>
</linearGradient>
<linearGradient id="paint5_linear_779_126" x1="20.9752" y1="46.376" x2="16.2853" y2="31.1906" gradientUnits="userSpaceOnUse">
<stop offset="0.0766757" stop-color="#195A80"/>
<stop offset="0.4654" stop-color="#0E9A7D"/>
<stop offset="1" stop-color="#00EF78"/>
</linearGradient>
<linearGradient id="paint6_linear_779_126" x1="9.50356" y1="49.4277" x2="18.2833" y2="40.6661" gradientUnits="userSpaceOnUse">
<stop offset="0.0766757" stop-color="#195A80"/>
<stop offset="0.4654" stop-color="#0E9A7D"/>
<stop offset="1" stop-color="#00EF78"/>
</linearGradient>
<linearGradient id="paint7_linear_779_126" x1="15.6137" y1="48.2963" x2="25.9611" y2="39.6318" gradientUnits="userSpaceOnUse">
<stop offset="0.0766757" stop-color="#195A80"/>
<stop offset="0.4654" stop-color="#0E9A7D"/>
<stop offset="1" stop-color="#00EF78"/>
</linearGradient>
<linearGradient id="paint8_linear_779_126" x1="23.3959" y1="40.729" x2="32.1533" y2="33.3959" gradientUnits="userSpaceOnUse">
<stop offset="0.0766757" stop-color="#195A80"/>
<stop offset="0.4654" stop-color="#0E9A7D"/>
<stop offset="1" stop-color="#00EF78"/>
</linearGradient>
<linearGradient id="paint9_linear_779_126" x1="0.756409" y1="34.2855" x2="4.30107" y2="29.7691" gradientUnits="userSpaceOnUse">
<stop offset="0.0766757" stop-color="#195A80"/>
<stop offset="0.4654" stop-color="#0E9A7D"/>
<stop offset="1" stop-color="#00EF78"/>
</linearGradient>
<linearGradient id="paint10_linear_779_126" x1="5.64033" y1="39.239" x2="11.1392" y2="34.6344" gradientUnits="userSpaceOnUse">
<stop offset="0.0766757" stop-color="#195A80"/>
<stop offset="0.4654" stop-color="#0E9A7D"/>
<stop offset="1" stop-color="#00EF78"/>
</linearGradient>
<linearGradient id="paint11_linear_779_126" x1="9.06219" y1="30.7026" x2="2.62202" y2="19.464" gradientUnits="userSpaceOnUse">
<stop offset="0.0766757" stop-color="#195A80"/>
<stop offset="0.4654" stop-color="#0E9A7D"/>
<stop offset="1" stop-color="#00EF78"/>
</linearGradient>
<linearGradient id="paint12_linear_779_126" x1="13.6821" y1="28.8222" x2="21.6196" y2="10.0236" gradientUnits="userSpaceOnUse">
<stop offset="0.0766757" stop-color="#195A80"/>
<stop offset="0.428" stop-color="#0F9079"/>
<stop offset="1" stop-color="#00E56E"/>
</linearGradient>
</defs>
</svg>
