<svg width="47" height="46" viewBox="0 0 47 46" fill="none" xmlns="http://www.w3.org/2000/svg">
<path d="M23.009 23C27.2407 23 30.6727 19.568 30.6727 15.3363C30.6727 11.1047 27.2407 7.66367 23.009 7.66367C18.7774 7.66367 15.3454 11.0957 15.3454 15.3273C15.3454 19.559 18.7774 23 23.009 23ZM23.009 11.5C25.1294 11.5 26.8454 13.216 26.8454 15.3363C26.8454 17.4566 25.1294 19.1727 23.009 19.1727C20.8887 19.1727 19.1727 17.4566 19.1727 15.3363C19.1727 13.216 20.8887 11.5 23.009 11.5ZM39.6032 17.5465L38.2286 17.0883C39.1989 8.67891 33.1704 1.06914 24.752 0.0988281C24.177 0.0359375 23.593 0 23.009 0C14.5458 0 7.69068 6.86406 7.69068 15.3273C7.69068 16.0281 7.73561 16.7289 7.83443 17.4297C6.00162 17.7711 4.30357 18.6336 2.94693 19.9184C1.05123 21.7152 -0.00892774 24.2219 5.66416e-05 26.8363V34.6437C0.00904102 38.9023 2.81217 42.6398 6.90006 43.8438L12.3985 45.5688C13.3239 45.8563 14.2852 46 15.2555 46C16.136 46 17.0075 45.8832 17.852 45.6406L28.9387 42.3703C29.927 42.1008 30.9692 42.1008 31.9575 42.3703L36.5305 43.9066C40.6454 44.9039 44.7872 42.3883 45.7934 38.2734C45.9372 37.6805 46.0091 37.0785 46.0091 36.4676V26.5848C46.0001 22.5238 43.4395 18.9031 39.6032 17.5465ZM14.8782 7.21445C19.3524 2.72227 26.6118 2.71328 31.104 7.17852C31.113 7.1875 31.1219 7.19648 31.1399 7.21445C35.6141 11.7156 35.6231 18.993 31.1579 23.5031L24.3477 30.1246C23.611 30.8523 22.4251 30.8523 21.6883 30.1246L14.8782 23.5301C10.395 19.0199 10.395 11.7246 14.8782 7.21445ZM42.1727 36.4586C42.1727 37.6355 41.6337 38.7496 40.7083 39.4684C39.8368 40.1691 38.6958 40.4477 37.5907 40.223L33.0985 38.7137C31.4005 38.2285 29.5946 38.2105 27.8876 38.6867L16.8098 41.957C15.7407 42.2535 14.6176 42.2355 13.5665 41.9031L8.02311 40.1781C5.56139 39.4684 3.85435 37.2133 3.85435 34.6437V26.8363C3.84537 25.273 4.48326 23.7727 5.61529 22.6945C6.49576 21.859 7.60983 21.3199 8.81373 21.1492C9.58639 23.0629 10.7364 24.8059 12.2008 26.2613L19.038 32.8828C21.2571 35.057 24.8149 35.057 27.034 32.8828L33.8622 26.2434C35.3895 24.707 36.5755 22.8652 37.3391 20.8348L38.3723 21.1762C40.6633 21.9937 42.1907 24.159 42.1907 26.5938V36.4586H42.1727Z" fill="#00E56E"/>
</svg>
