<svg width="16" height="16" viewBox="0 0 16 16" fill="none" xmlns="http://www.w3.org/2000/svg">
<path d="M14.5973 6.59245H9.41251V1.41409C9.41251 0.630697 8.77439 0 7.99668 0C7.21232 0 6.58084 0.637336 6.58084 1.41409V6.59245H1.3961C0.611742 6.60572 -0.0130859 7.2497 0.000208266 8.03309C0.0135025 8.79657 0.631683 9.41399 1.3961 9.42726H6.58084V14.6056C6.59414 15.389 7.23891 16.0131 8.02326 15.9998C8.78768 15.9865 9.40586 15.3691 9.41916 14.6056V9.42726H14.6039C15.3883 9.41399 16.0131 8.77001 15.9998 7.98662C15.9798 7.2165 15.3617 6.60572 14.5973 6.59245Z" fill="#C5D6DF"/>
</svg>
