<svg width="27" height="29" viewBox="0 0 27 29" fill="none" xmlns="http://www.w3.org/2000/svg">
<path d="M21.7538 17.1118C20.0315 17.1118 18.4144 17.9977 17.44 19.4743L10.1237 16.0454C10.6452 14.7438 10.6452 13.2782 10.129 11.9766L17.4347 8.5313C19.0781 11.0032 22.3385 11.6211 24.7193 9.90943C27.1001 8.19771 27.6953 4.81255 26.0519 2.34615C24.4086 -0.120261 21.1481 -0.743698 18.7673 0.968021C17.3504 1.98521 16.5077 3.65865 16.5077 5.44693C16.5129 5.75318 16.5445 6.05943 16.5972 6.36568L8.83325 10.0297C6.72108 7.97349 3.39743 8.08834 1.41694 10.2813C-0.563549 12.4743 -0.452937 15.9251 1.65924 17.9813C3.67133 19.9391 6.79482 19.9446 8.81745 17.9977L16.6025 21.6454C16.5498 21.9461 16.5182 22.2524 16.5129 22.5586C16.5129 25.5665 18.8621 28.0055 21.7538 28.0055C24.6508 28.0055 27 25.5665 27 22.5641C27 19.5618 24.6508 17.1118 21.7538 17.1118ZM21.7538 2.33521C23.4078 2.33521 24.7509 3.72974 24.7509 5.44693C24.7509 7.16412 23.4078 8.55865 21.7538 8.55865C20.0999 8.55865 18.7568 7.16412 18.7568 5.44693C18.762 3.72974 20.0999 2.33521 21.7538 2.33521ZM5.27258 17.1118C3.61866 17.1118 2.27551 15.7172 2.27551 14.0001C2.27551 12.2829 3.61866 10.8883 5.27258 10.8883C6.9265 10.8883 8.26965 12.2829 8.26965 14.0001C8.26965 15.7172 6.9265 17.1118 5.27258 17.1118ZM21.7538 25.6649C20.0999 25.6649 18.7568 24.2704 18.7568 22.5532C18.7568 20.836 20.0999 19.4415 21.7538 19.4415C23.4078 19.4415 24.7509 20.836 24.7509 22.5532C24.7509 24.2758 23.4078 25.6649 21.7538 25.6649Z" fill="#8D8D8D"/>
</svg>
