<svg width="21" height="21" viewBox="0 0 21 21" fill="none" xmlns="http://www.w3.org/2000/svg">
<path d="M14.5726 9.62419H11.3734V6.42434C11.3734 5.94026 10.9796 5.55054 10.4997 5.55054C10.0158 5.55054 9.6261 5.94436 9.6261 6.42434V9.62419H6.42689C5.9429 9.63239 5.55736 10.0303 5.56556 10.5144C5.57376 10.9862 5.95521 11.3677 6.42689 11.3759H9.6261V14.5757C9.63431 15.0598 10.0322 15.4454 10.5161 15.4372C10.9878 15.429 11.3693 15.0475 11.3775 14.5757V11.3759H14.5767C15.0607 11.3677 15.4462 10.9698 15.438 10.4857C15.4257 10.0098 15.0443 9.63239 14.5726 9.62419Z" fill="#454545"/>
<path d="M17.9238 3.0726C13.8223 -1.02566 7.17773 -1.02566 3.07617 3.0726C-1.02539 7.17496 -1.02539 13.8249 3.07617 17.9231C7.17773 22.0255 13.8264 22.0255 17.9238 17.9231C22.0254 13.8208 22.0254 7.17086 17.9238 3.0726ZM16.6852 16.6842C13.2686 20.1015 7.72734 20.1015 4.31074 16.6842C0.89414 13.267 0.89414 7.72468 4.31074 4.30741C7.72734 0.89014 13.2686 0.89014 16.6852 4.30741C20.0977 7.72878 20.0977 13.267 16.6852 16.6842Z" fill="#454545"/>
</svg>
