<svg width="576" height="322" viewBox="0 0 576 322" fill="none" xmlns="http://www.w3.org/2000/svg">
<path d="M147.089 62.3908C143.524 62.3908 140.566 59.445 140.566 55.8949C140.566 52.3448 143.524 49.399 147.089 49.399C150.653 49.399 153.611 52.3448 153.611 55.8949C153.535 59.445 150.653 62.3908 147.089 62.3908ZM147.089 50.0033C143.828 50.0033 141.173 52.647 141.173 55.8949C141.173 59.1429 143.828 61.7865 147.089 61.7865C150.35 61.7865 153.004 59.1429 153.004 55.8949C153.004 52.647 150.35 50.0033 147.089 50.0033Z" fill="white"/>
<path d="M147.089 55.8949C145.572 55.8949 144.283 54.6108 144.283 53.1002V44.7915C144.283 43.2808 145.572 41.9967 147.089 41.9967C148.606 41.9967 149.895 43.2808 149.895 44.7915V53.1002C149.82 54.6108 148.606 55.8949 147.089 55.8949Z" fill="#1834B1"/>
<path d="M198.584 57.8588C183.341 52.0427 165.746 48.7192 147.089 48.7192C128.432 48.7192 110.838 52.0427 95.5938 57.8588H198.584Z" fill="white"/>
<path d="M147.393 0H146.786V41.9967H147.393V0Z" fill="#2C3451"/>
<path d="M248.108 165.343C248.108 165.343 257.133 158.696 253.038 155.146C243.482 147.215 218.683 174.407 219.289 177.278C219.896 180.148 250.004 185.586 255.162 171.839C258.498 163.455 248.108 165.343 248.108 165.343Z" fill="#27AA67"/>
<path d="M248.109 165.343C248.109 165.343 240.525 165.947 219.365 177.278C219.972 180.148 250.08 185.586 255.237 171.839C258.499 163.455 248.109 165.343 248.109 165.343Z" fill="#1D884E"/>
<path d="M229.148 172.519L228.921 171.99C251.597 161.038 265.931 160.887 271.619 171.537L271.088 171.839C265.627 161.491 251.521 161.718 229.148 172.519Z" fill="#39917F"/>
<path d="M220.503 177.051L220.199 176.522C222.019 175.54 223.764 174.558 225.432 173.727L225.66 174.256C224.067 175.087 222.323 176.069 220.503 177.051Z" fill="#39917F"/>
<path d="M282.919 170.253H275.108H267.296C267.296 170.253 256.678 214.289 257.589 220.558C258.574 226.828 262.442 230.227 262.442 230.227H275.108H287.773C287.773 230.227 291.641 226.903 292.627 220.558C293.612 214.213 282.919 170.253 282.919 170.253Z" fill="#F1AA5B"/>
<path d="M283.45 171.99H266.841V172.594H283.45V171.99Z" fill="#2C3451"/>
<path d="M292.626 219.727H257.664V220.332H292.626V219.727Z" fill="#2C3451"/>
<path d="M295.735 230.151H254.479V236.647H295.735V230.151Z" fill="#1834B1"/>
<path d="M259.005 235.05L254.694 321.734L255.225 321.761L259.536 235.077L259.005 235.05Z" fill="#2C3451"/>
<path d="M291.333 235.015L290.727 235.046L295.112 321.721L295.718 321.691L291.333 235.015Z" fill="#2C3451"/>
<path d="M294.522 303.948H255.844V304.552H294.522V303.948Z" fill="#2C3451"/>
<path d="M293.839 291.409H256.45V292.013H293.839V291.409Z" fill="#2C3451"/>
<path d="M304.457 174.332C304.457 174.332 295.508 167.609 293.233 172.519C288.303 183.924 314.847 204.47 317.426 203.034C320.004 201.599 323.341 166.703 308.704 165.721C299.603 164.89 304.457 174.332 304.457 174.332Z" fill="#27AA67"/>
<path d="M304.457 174.332C304.457 174.332 295.508 167.609 293.233 172.519C288.303 183.924 314.847 204.47 317.426 203.034C316.667 196.312 309.008 177.051 304.457 174.332Z" fill="#1D884E"/>
<path d="M269.647 144.949C269.647 144.949 270.102 153.938 262.897 153.031C255.692 152.2 261.456 126.443 261.456 126.443C261.456 126.443 284.663 139.888 278.444 145.78C273.97 150.539 269.647 144.949 269.647 144.949Z" fill="#1D884E"/>
<path d="M269.647 144.949L261.456 126.519C261.456 126.519 284.663 139.964 278.444 145.856C273.97 150.539 269.647 144.949 269.647 144.949Z" fill="#27AA67"/>
<path d="M285.346 152.805C291.716 144.571 302.789 139.662 315.606 135.356C315.606 135.356 309.614 155.448 301.727 158.243C294.067 160.434 285.346 152.805 285.346 152.805Z" fill="#27AA67"/>
<path d="M258.043 145.176C258.043 145.176 246.743 132.562 238.477 126.519C238.477 126.519 240.069 141.323 245.075 145.176C250.156 148.575 258.043 145.176 258.043 145.176Z" fill="#27AA67"/>
<path d="M281.705 157.79L281.25 157.488C288.151 146.233 301.803 140.115 315.606 135.13L315.833 135.658C302.106 140.568 288.531 146.611 281.705 157.79Z" fill="#39917F"/>
<path d="M277.382 170.253L276.852 170.177C277.307 166.552 278.368 163.077 279.885 159.98L280.416 160.207C278.823 163.304 277.837 166.703 277.382 170.253Z" fill="#39917F"/>
<path d="M274.879 170.253C273.514 153.333 267.144 138.227 262.062 128.558L262.593 128.332C267.75 138.076 274.121 153.258 275.486 170.253H274.879Z" fill="#39917F"/>
<path d="M316.44 201.222C316.061 199.333 315.606 197.445 315.075 195.632L315.606 195.481C316.137 197.294 316.592 199.182 316.971 201.146L316.44 201.222Z" fill="#39917F"/>
<path d="M313.634 190.949C308.477 176.296 299.3 166.174 290.275 165.192C285.876 164.739 282.16 166.552 279.733 170.328L279.278 170.026C281.781 166.023 285.725 164.059 290.351 164.588C299.679 165.645 309.008 175.918 314.24 190.723L313.634 190.949Z" fill="#39917F"/>
<path d="M262.214 180.45C262.214 180.45 264.11 173.048 259.257 174.181C248.108 177.051 253.645 204.772 256.147 205.829C258.65 206.887 280.492 192.837 272.984 181.583C268.433 174.483 262.214 180.45 262.214 180.45Z" fill="#27AA67"/>
<path d="M262.215 180.45C262.215 180.45 257.285 196.085 256.147 205.829C258.65 206.887 280.492 192.837 272.984 181.583C268.434 174.483 262.215 180.45 262.215 180.45Z" fill="#1D884E"/>
<path d="M272.756 170.328C268.13 158.998 261.38 148.726 252.734 139.586L253.114 139.209C261.759 148.348 268.509 158.772 273.211 170.102L272.756 170.328Z" fill="#39917F"/>
<path d="M250.005 136.716C246.44 133.241 242.496 129.842 238.325 126.67L238.704 126.217C242.876 129.389 246.819 132.788 250.384 136.263L250.005 136.716Z" fill="#39917F"/>
<path d="M256.83 202.732L256.299 202.657C256.526 201.222 262.594 167.911 271.163 165.721C272.604 165.57 273.742 165.796 274.652 166.552C276.245 167.836 276.472 170.102 276.472 170.177L275.941 170.253C275.941 170.253 275.714 168.138 274.273 167.005C273.514 166.401 272.453 166.099 271.239 166.325C263.124 168.365 256.906 202.43 256.83 202.732Z" fill="#39917F"/>
<path d="M522.043 322H515.748L515.672 321.773L510.363 298.207H519.085L522.043 322ZM516.203 321.471H521.36L518.554 298.811H511.122L516.203 321.471Z" fill="#2C3451"/>
<path d="M337.524 322H331.229L334.187 298.207H342.909L337.524 322ZM331.912 321.471H337.069L342.15 298.811H334.642L331.912 321.471Z" fill="#2C3451"/>
<path d="M504.675 322H498.381L498.305 321.773L492.996 298.207H501.718L504.675 322ZM498.912 321.471H504.069L501.263 298.811H493.754L498.912 321.471Z" fill="white"/>
<path d="M354.891 322H348.597L351.554 298.207H360.276L354.891 322ZM349.279 321.471H354.436L359.518 298.811H352.009L349.279 321.471Z" fill="white"/>
<path d="M350.341 261.649H502.855L509.756 261.044L522.042 264.443L526.138 271.695L529.171 286.575L525.228 294.204L358.835 296.092L322.887 289.747L324.176 275.698L332.367 263.99L342.15 259.156L350.341 261.649Z" fill="#2267C7"/>
<path d="M526.138 271.695L522.043 264.443L509.757 261.044L502.855 261.649H350.341L342.15 259.156L332.367 263.99L326.982 271.695H526.138Z" fill="#2672C5"/>
<path d="M303.244 251.074L325.086 244.2C326.906 243.596 327.968 242.388 328.575 240.424L335.097 214.213C335.855 211.192 337.751 209.53 340.785 209.455H350.72L345.639 237.629L328.044 253.189H317.35H309.16L303.244 251.074Z" fill="#3B7DD7"/>
<path d="M550.103 251.074L528.261 244.2C526.441 243.596 525.379 242.388 524.772 240.424L518.25 214.213C517.492 211.192 515.596 209.53 512.562 209.455H502.627L507.708 237.629L525.303 253.189H535.997H544.187L550.103 251.074Z" fill="#3B7DD7"/>
<path d="M333.201 287.33V272.45C333.201 270.335 334.111 268.447 336.007 267.465L350.265 265.35C352.844 254.171 344.729 244.049 335.325 244.88L313.862 251.074L312.876 264.67L316.061 275.245L323.949 285.668L331.836 288.539L333.201 287.33Z" fill="#3B7DD7"/>
<path d="M519.918 287.33V272.45C519.918 270.335 519.008 268.447 517.112 267.465L502.854 265.35C500.276 254.171 508.391 244.049 517.795 244.88L539.258 251.074L541.609 258.099L535.541 270.108C535.541 270.108 532.432 283.1 532.432 283.478C532.432 283.855 530.233 292.466 530.233 292.466H522.042L519.918 287.33Z" fill="#3B7DD7"/>
<path d="M509.908 214.591C508.922 211.268 506.571 209.455 502.931 209.455H350.417C346.776 209.455 344.425 211.268 343.439 214.591L335.628 247.524L350.341 265.425H502.855L517.795 247.524L509.908 214.591Z" fill="#2267C7"/>
<path d="M549.117 250.923H541.306C539.789 250.923 538.727 250.998 537.969 252.962L523.862 284.384C522.649 286.575 520.98 287.708 517.795 287.783H409.951H335.552C332.367 287.708 330.698 286.499 329.485 284.384L315.378 252.962C314.62 250.923 313.558 250.923 312.042 250.923H304.23C302.562 250.923 301.879 252.207 302.334 253.491L318.943 297.754C319.853 300.02 322.432 302.135 325.92 302.135H410.027H527.579C531.067 302.135 533.57 300.02 534.556 297.754L551.165 253.491C551.468 252.131 550.786 250.923 549.117 250.923Z" fill="#1834B1"/>
<path d="M516.279 271.392H336.538V271.997H516.279V271.392Z" fill="#2C3451"/>
<path d="M330.791 245.984L313.82 250.885L313.989 251.466L330.96 246.564L330.791 245.984Z" fill="#2C3451"/>
<path d="M522.117 245.928L521.947 246.508L538.915 251.422L539.084 250.841L522.117 245.928Z" fill="#2C3451"/>
<path d="M508.239 230.755C516.278 228.565 533.342 232.946 535.087 237.176C536.831 241.406 521.663 269.051 514.231 270.259C506.874 271.468 486.17 266.256 486.17 262.253C486.777 252.811 500.2 233.021 508.239 230.755Z" fill="#F1AA5B"/>
<path d="M512.41 269.429C511.273 266.105 516.127 255.228 521.284 247.222C523.407 243.974 528.716 236.345 532.736 235.892L532.811 236.42C530.157 236.722 526.137 240.726 521.739 247.524C516.127 256.286 512.031 266.407 512.941 269.277L512.41 269.429Z" fill="#2C3451"/>
<path d="M165.594 243.672H152.397V269.504H165.594V243.672Z" fill="white"/>
<path d="M182.886 237.629H169.689V269.504H182.886V237.629Z" fill="white"/>
<path d="M174.391 250.092H161.195V269.504H174.391V250.092Z" fill="#F7EFE4"/>
<path d="M159.299 242.085H158.692V243.672H159.299V242.085Z" fill="#2C3451"/>
<path d="M176.591 236.043H175.984V237.629H176.591V236.043Z" fill="#2C3451"/>
<path d="M168.097 248.506H167.49V250.092H168.097V248.506Z" fill="#2C3451"/>
<path d="M189.787 269.429H147.089V271.241H189.787V269.429Z" fill="#3B7DD7"/>
<path d="M209.884 267.993V264.217C209.884 262.404 211.401 260.969 213.145 260.969H200.252C198.432 260.969 196.991 262.479 196.991 264.217V267.993C196.991 269.806 198.508 271.241 200.252 271.241H213.145C211.401 271.317 209.884 269.806 209.884 267.993Z" fill="#2267C7"/>
<path d="M213.221 260.969C211.401 260.969 209.96 262.479 209.96 264.217V267.993C209.96 269.806 211.477 271.241 213.221 271.241H237.717V260.893H213.221V260.969Z" fill="#3B7DD7"/>
<path d="M213.448 261.951C212.007 261.951 210.794 263.159 210.794 264.594V267.691C210.794 269.126 212.007 270.335 213.448 270.335H237.717V261.951H213.448Z" fill="white"/>
<path d="M236.504 262.933H216.406V263.537H236.504V262.933Z" fill="#2267C7"/>
<path d="M237.718 266.332H219.819V266.936H237.718V266.332Z" fill="#2267C7"/>
<path d="M217.392 266.332H214.51V266.936H217.392V266.332Z" fill="#2267C7"/>
<path d="M230.815 268.447H215.875V269.051H230.815V268.447Z" fill="#2267C7"/>
<path d="M222.095 322H219.592L210.264 274.187H215.117L222.095 322ZM220.047 321.471H221.412L214.587 274.716H210.87L220.047 321.471Z" fill="#2C3451"/>
<path d="M158.996 322H156.493L163.47 274.112H168.324L158.996 322ZM157.176 321.471H158.541L167.642 274.716H163.925L157.176 321.471Z" fill="#2C3451"/>
<path d="M190.545 322H188.043L186.829 274.112H191.607V274.414L190.545 322ZM188.649 321.471H190.014L191.152 274.716H187.512L188.649 321.471Z" fill="white"/>
<path d="M241.965 271.317H136.623V276H241.965V271.317Z" fill="#1834B1"/>
<path d="M108.259 322H101.965L96.5801 298.207H105.302L108.259 322ZM102.42 321.471H107.577L104.771 298.811H97.2626L102.42 321.471Z" fill="#2C3451"/>
<path d="M32.5711 322H26.2764L29.2341 298.207H37.9557L32.5711 322ZM26.9589 321.471H32.116L37.1973 298.811H29.6892L26.9589 321.471Z" fill="#2C3451"/>
<path d="M90.8922 322H84.5975L79.2129 298.207H87.9345L90.8922 322ZM85.0526 321.471H90.2097L87.4036 298.811H79.8954L85.0526 321.471Z" fill="white"/>
<path d="M49.9383 322H43.6436L46.6013 298.207H55.3229L49.9383 322ZM44.3261 321.471H49.4832L54.5645 298.811H47.0563L44.3261 321.471Z" fill="white"/>
<path d="M45.3876 261.649H88.9956L95.9729 261.044L108.259 264.443L112.354 271.695L115.388 286.575L111.444 294.204L53.8059 296.092L17.9336 289.747L19.147 275.698L27.4136 263.99L37.1969 259.156L45.3876 261.649Z" fill="#2267C7"/>
<path d="M112.355 271.695L108.259 264.443L95.9732 261.044L88.9959 261.649H45.388L37.1973 259.156L27.4139 263.99L22.0293 271.695H112.355Z" fill="#2672C5"/>
<path d="M2.00781 251.074L20.1336 244.2C21.9537 243.596 23.0155 242.388 23.6222 240.424L30.1444 214.213C30.9028 211.192 32.7988 209.53 35.8324 209.455H45.7674L40.6862 237.629L23.0913 253.189H16.1899H7.92333L2.00781 251.074Z" fill="#3B7DD7"/>
<path d="M132.603 251.074L114.478 244.2C112.657 243.596 111.596 242.388 110.989 240.424L104.467 214.213C103.708 211.192 101.812 209.53 98.7788 209.455H88.8438L93.925 237.629L111.52 253.189H118.421H126.612L132.603 251.074Z" fill="#3B7DD7"/>
<path d="M28.248 287.33V272.45C28.248 270.335 29.158 268.447 31.054 267.465L45.3119 265.35C47.8905 254.171 39.7756 244.049 30.3715 244.88L12.6249 251.074L7.92285 264.67L11.1081 275.245L18.9955 285.668L26.8828 288.539L28.248 287.33Z" fill="#3B7DD7"/>
<path d="M106.136 287.33V272.45C106.136 270.335 105.226 268.447 103.33 267.465L89.0722 265.35C86.4936 254.171 94.6085 244.049 104.013 244.88L121.759 251.074L124.11 258.099L121.759 270.108C121.759 270.108 118.65 283.1 118.65 283.478C118.65 283.855 116.45 292.466 116.45 292.466H108.26L106.136 287.33Z" fill="#3B7DD7"/>
<path d="M96.1247 214.591C95.1387 211.268 92.7877 209.455 89.1474 209.455H45.4636C41.8233 209.455 39.4722 211.268 38.4863 214.591L30.6748 247.524L45.3878 265.425H89.0715L104.012 247.524L96.1247 214.591Z" fill="#2267C7"/>
<path d="M131.618 250.923H123.806C122.29 250.923 121.228 250.998 120.469 252.962L110.079 284.384C108.866 286.575 107.197 287.708 104.012 287.783H105.074H30.5991C27.4138 287.708 25.7454 286.499 24.5319 284.384L14.1418 252.962C13.3834 250.923 12.3217 250.923 10.8049 250.923H2.91754C1.24906 250.923 0.5665 252.207 1.02154 253.491L13.9143 297.754C14.8244 300.02 17.403 302.135 20.8916 302.135H104.998H113.644C117.132 302.135 119.635 300.02 120.621 297.754L133.514 253.491C133.969 252.131 133.211 250.923 131.618 250.923Z" fill="#1834B1"/>
<path d="M102.419 271.392H31.585V271.997H102.419V271.392Z" fill="#2C3451"/>
<path d="M25.811 245.991L12.5195 250.918L12.7312 251.484L26.0226 246.558L25.811 245.991Z" fill="#2C3451"/>
<path d="M108.307 245.907L108.095 246.473L121.385 251.404L121.597 250.838L108.307 245.907Z" fill="#2C3451"/>
<path d="M558.9 98.0427H558.293V315.731H558.9V98.0427Z" fill="#2C3451"/>
<path d="M574.143 315.731H543.655V321.698H574.143V315.731Z" fill="#1834B1"/>
<path d="M575.129 37.8424H541.987V158.243H575.129V37.8424Z" fill="#F1AA5B"/>
<path d="M550.482 158.243H549.875V188.759H550.482V158.243Z" fill="white"/>
<path d="M550.178 196.614C549.875 196.614 549.647 196.388 549.647 196.085V188.154C549.647 187.852 549.875 187.626 550.178 187.626C550.482 187.626 550.709 187.852 550.709 188.154V196.085C550.633 196.312 550.406 196.614 550.178 196.614Z" fill="#1834B1"/>
<path d="M575.129 149.103H541.987V149.708H575.129V149.103Z" fill="#2C3451"/>
<path d="M575.129 46.6798H541.987V47.2841H575.129V46.6798Z" fill="#2C3451"/>
<path d="M125.095 141.021H85.4307V148.348H125.095V141.021Z" fill="#2267C7"/>
<path d="M127.825 148.348H84.0654V151.974H127.825V148.348Z" fill="#1834B1"/>
<path d="M90.4358 141.021H89.8291V148.348H90.4358V141.021Z" fill="white"/>
<path d="M92.7864 141.021H92.1797V148.348H92.7864V141.021Z" fill="white"/>
<path d="M118.345 141.021H117.738V148.348H118.345V141.021Z" fill="white"/>
<path d="M120.62 141.021H120.014V148.348H120.62V141.021Z" fill="white"/>
<path d="M40.6855 147.517C42.7332 149.632 45.3118 151.143 48.3454 151.747H54.2609C57.2186 151.143 59.873 149.632 61.9207 147.517H40.6855Z" fill="#F1AA5B"/>
<path d="M48.3453 152.049C41.4439 150.614 36.4385 144.496 36.4385 137.471C36.4385 132.411 39.017 127.727 43.3399 124.933L43.4158 124.857H59.2663L59.3421 124.933C63.665 127.652 66.2436 132.335 66.2436 137.471C66.2436 144.496 61.2381 150.614 54.3367 151.974L48.3453 152.049ZM43.5674 125.461C39.4721 128.105 36.9694 132.562 36.9694 137.471C36.9694 144.194 41.7473 150.085 48.4212 151.445H54.3367C60.9348 150.085 65.7127 144.194 65.7127 137.471C65.7127 132.637 63.2858 128.105 59.1146 125.461H43.5674Z" fill="white"/>
<path d="M38.8655 137.622H38.2588C38.2588 134.677 39.2447 131.957 40.989 129.616L41.4441 129.993C39.7756 132.184 38.8655 134.828 38.8655 137.622Z" fill="white"/>
<path d="M42.8089 128.558L42.4297 128.181C43.0364 127.652 43.6431 127.123 44.3257 126.67L44.629 127.123C43.9465 127.576 43.3398 128.03 42.8089 128.558Z" fill="white"/>
<path d="M47.814 147.517C43.8704 146.082 41.5193 143.514 39.0166 139.888C42.5052 140.493 45.6905 141.701 48.1174 144.269C45.8422 141.172 44.6288 136.867 43.7945 132.108C47.1315 135.432 49.8617 138.982 50.9993 143.136C50.7718 138.151 52.2127 133.166 54.3363 128.105C55.2463 133.695 55.4739 138.906 54.1846 143.438C55.4739 140.266 57.9766 137.698 61.3135 135.507C60.0243 139.133 58.5833 142.154 56.7631 143.967C58.2799 142.23 60.4793 141.097 62.982 140.19C60.7827 143.741 57.8249 146.384 54.7155 147.593H47.814V147.517Z" fill="#27AA67"/>
<path d="M49.1799 147.517C48.8766 145.78 47.8906 144.345 47.8906 144.345L48.3457 144.043C48.4215 144.118 49.4074 145.553 49.7866 147.442L49.1799 147.517Z" fill="#39917F"/>
<path d="M51.5305 147.593C51.0755 146.233 50.6963 143.212 50.6963 143.061L51.2272 142.985C51.2272 142.985 51.6064 146.082 52.0614 147.366L51.5305 147.593Z" fill="#39917F"/>
<path d="M52.8961 147.593L52.3652 147.291C53.1236 145.856 53.6545 144.496 53.8062 143.212L54.3371 143.287C54.1854 144.723 53.7304 146.082 52.8961 147.593Z" fill="#39917F"/>
<path d="M53.8818 147.668L53.4268 147.366C54.3368 145.856 56.4604 143.741 56.5362 143.665L56.9154 144.043C56.9154 144.043 54.7919 146.158 53.8818 147.668Z" fill="#39917F"/>
<path d="M33.5566 167.458H29.082V153.258H33.5566V167.458ZM29.6887 166.929H33.0257V153.862H29.6887V166.929Z" fill="white"/>
<path d="M147.923 167.458H143.448V153.258H147.923V167.458ZM144.055 166.929H147.392V153.862H144.055V166.929Z" fill="white"/>
<path d="M154.066 151.974H23.0146V155.146H154.066V151.974Z" fill="white"/>
<path d="M33.5566 122.062H29.082V107.862H33.5566V122.062ZM29.6887 121.534H33.0257V108.466H29.6887V121.534Z" fill="white"/>
<path d="M147.923 122.062H143.448V107.862H147.923V122.062ZM144.055 121.534H147.392V108.466H144.055V121.534Z" fill="white"/>
<path d="M154.066 106.578H23.0146V109.75H154.066V106.578Z" fill="white"/>
<path d="M77.6194 96.0033H37.9551V103.255H77.6194V96.0033Z" fill="#F1AA5B"/>
<path d="M42.6575 96.0033H42.0508V103.255H42.6575V96.0033Z" fill="white"/>
<path d="M44.2503 96.0033H43.6436V103.255H44.2503V96.0033Z" fill="white"/>
<path d="M71.9319 96.0033H71.3252V103.255H71.9319V96.0033Z" fill="white"/>
<path d="M73.5247 96.0033H72.918V103.255H73.5247V96.0033Z" fill="white"/>
<path d="M140.187 101.291H98.1719V106.578H140.187V101.291Z" fill="#F1AA5B"/>
<path d="M82.3212 103.255H34.7695V106.578H82.3212V103.255Z" fill="#1834B1"/>
<path d="M83.3078 89.6584H35.6045V96.0033H83.3078V89.6584Z" fill="white"/>
</svg>
