<svg width="44" height="43" viewBox="0 0 44 43" fill="none" xmlns="http://www.w3.org/2000/svg">
<path d="M41.7115 19.7066C42.7023 19.7066 43.5 18.9002 43.5 17.9174C43.5 16.9262 42.6939 16.1282 41.7115 16.1282H39.2008L37.8237 11.6845C36.7909 8.34128 33.9024 5.90525 30.4261 5.46845C29.0407 2.15882 25.7995 0.00840008 22.214 0H21.7942C18.2087 0.00840008 14.976 2.15882 13.5821 5.46845C10.1142 5.90525 7.21728 8.33288 6.18447 11.6761L4.80739 16.1197H2.30513C1.31431 16.1197 0.508209 16.9262 0.508209 17.909C0.508209 18.9002 1.31431 19.6982 2.29673 19.6982H3.69901L2.41429 23.8226C-0.264299 26.687 -0.113156 31.1727 2.75016 33.8439C3.15321 34.2219 3.60664 34.5579 4.08526 34.8267V37.624C4.08526 40.5892 6.49515 43 9.45923 43C12.4233 43 14.8332 40.5892 14.8332 37.624V35.8347H29.1666V37.624C29.1666 40.5892 31.5765 43 34.5406 43C37.5047 43 39.9146 40.5892 39.9146 37.624V34.8351C43.3153 32.8947 44.5076 28.5687 42.568 25.1582C42.2909 24.6794 41.9634 24.2258 41.5855 23.8226L40.3092 19.7066H41.7115ZM21.7942 3.57843H22.214C23.7339 3.57843 25.1865 4.23364 26.2025 5.36765H17.8057C18.8217 4.23364 20.2744 3.57843 21.7942 3.57843ZM9.61877 12.7345C10.3073 10.4833 12.3897 8.94608 14.7492 8.95448H29.2674C31.6269 8.94608 33.7093 10.4833 34.3978 12.7345L37.1436 21.5798C36.8749 21.5378 36.6062 21.5126 36.3375 21.4958H7.67911C7.41041 21.5042 7.14171 21.5378 6.87301 21.5798L9.61877 12.7345ZM11.2562 37.624C11.2562 38.6152 10.4501 39.4132 9.46763 39.4132C8.4852 39.4132 7.67911 38.6068 7.67911 37.624V35.8347H11.2562V37.624ZM36.3375 37.624C36.3375 38.6152 35.5314 39.4132 34.549 39.4132C33.5665 39.4132 32.7521 38.6152 32.7521 37.624V35.8347H36.3375V37.624ZM36.3375 32.2479H7.67911C5.69745 32.2479 4.09366 30.6435 4.09366 28.6611C4.09366 26.6786 5.69745 25.0742 7.67911 25.0742V26.8718C7.67911 27.8631 8.4852 28.6611 9.46763 28.6611C10.4501 28.6611 11.2562 27.8631 11.2562 26.8718V25.0826H32.7521V26.8718C32.7521 27.8631 33.5581 28.6611 34.5406 28.6611C35.523 28.6611 36.3291 27.8547 36.3291 26.8718V25.0826C38.3108 25.0826 39.9146 26.687 39.9146 28.6695C39.9229 30.6435 38.3192 32.2479 36.3375 32.2479Z" fill="#00E56E"/>
</svg>
